<svg xmlns="http://www.w3.org/2000/svg" version="1.1" xmlns:xlink="http://www.w3.org/1999/xlink" xmlns:svgjs="http://svgjs.com/svgjs" width="512" height="512" x="0" y="0" viewBox="0 0 100 100" style="enable-background:new 0 0 512 512" xml:space="preserve" class=""><g><path d="m81.2 50-2 24.6c-.5 6.3-10 5.4-9.5-.8l1.6-19.1-6.4.3c4.4 9.1 2.8 20-4.1 27.3l-6.1-6.1c9-10 2-26.1-11.5-26.1-3.9 0-7.6 1.4-10.5 4.1L26.4 48c3.5-3.3 7.9-5.5 12.7-6.3l11.7-13.4-6.6-3.9-8.1 7.2c-4.7 4.2-11-2.9-6.3-7.1L40.4 15c1.5-1.4 3.8-1.6 5.5-.6 0 0 21.7 12.6 21.8 12.7 2.5 1.8 3.1 5.2 1.4 7.7-.1.2-.2.3-.4.5l-9.2 10.4 16.6-.9c2.6-.1 4.9 1.9 5 4.5.1.2.1.5.1.7zM71.1 25.9c4.4 0 8-3.6 8-8s-3.6-8-8-8-8 3.6-8 8 3.6 8 8 8zM43.1 81.3c-8.6 0-15.6-7-15.6-15.7 0-3.1.9-6.1 2.7-8.7L24 50.7c-3.4 4.2-5.2 9.5-5.2 14.9C18.8 86 42.3 97 58 84.7l-6.2-6.2c-2.6 1.9-5.6 2.8-8.7 2.8z" fill="#4a83f8" data-original="#000000" class=""></path></g></svg>