<svg xmlns="http://www.w3.org/2000/svg" version="1.1" xmlns:xlink="http://www.w3.org/1999/xlink" xmlns:svgjs="http://svgjs.com/svgjs" width="512" height="512" x="0" y="0" viewBox="0 0 64 64" style="enable-background:new 0 0 512 512" xml:space="preserve" class=""><g><path fill="#4b85fa" d="M53 24.267C53 42.633 32 61 32 61S11 42.633 11 24.267a21 21 0 1 1 42 0z" data-original="#fa4b4b" class=""></path><path fill="#3c53dc" d="M19.625 46.953A86.778 86.778 0 0 0 32 61s17.6-15.4 20.567-32.1c-8.144 9.04-20.061 15.6-32.942 18.053z" data-original="#dc3c46" class=""></path><circle cx="32" cy="24" r="17" fill="#eeeeee" data-original="#eeeeee" class=""></circle><path fill="#2a49ad" d="M41 19v-1a3 3 0 0 0-3-3h-2v-3h-8v3h-2a3 3 0 0 0-3 3v1h-2v2h2v9a1 1 0 0 0 1 1h1v3h4v-3h6v3h4v-3h1a1 1 0 0 0 1-1v-9h2v-2zM26.5 29a1.5 1.5 0 1 1 1.5-1.5 1.5 1.5 0 0 1-1.5 1.5zm11 0a1.5 1.5 0 1 1 1.5-1.5 1.5 1.5 0 0 1-1.5 1.5zm1.5-5H25v-6a1 1 0 0 1 1-1h12a1 1 0 0 1 1 1z" data-original="#ad2a37" class=""></path></g></svg>