<svg height="512pt" viewBox="0 0 512 512" width="512pt" xmlns="http://www.w3.org/2000/svg"><path d="m246.640625 511.859375c-2.703125 0-5.332031-1.398437-6.785156-3.90625-2.171875-3.746094-.894531-8.539063 2.847656-10.707031l147.289063-85.375c3.742187-2.167969 8.539062-.894532 10.707031 2.851562 2.167969 3.742188.894531 8.535156-2.851563 10.707032l-147.285156 85.371093c-1.238281.714844-2.589844 1.058594-3.921875 1.058594zm0 0" fill="#ffce33"/><path d="m511.921875 0h-60.460937c-31.777344 0-57.539063 25.761719-57.539063 57.539062v386.953126c0 7.703124 6.246094 13.953124 13.949219 13.953124h104.050781" fill="#34abe0"/><path d="m408.503906 57.535156v386.957032c0 7.707031 6.246094 13.953124 13.957032 13.953124h-14.59375c-7.699219 0-13.945313-6.246093-13.945313-13.953124v-386.957032c0-31.773437 25.757813-57.535156 57.535156-57.535156h14.582031c-31.777343 0-57.535156 25.761719-57.535156 57.535156zm0 0" fill="#1895b7"/><path d="m438 511.859375h54.25c10.863281 0 19.671875-8.808594 19.671875-19.671875v-33.742188h-93.59375v33.742188c0 10.863281 8.808594 19.671875 19.671875 19.671875zm0 0" fill="#5c5e70"/><path d="m444.382812 476.046875v16.140625c0 10.863281 8.804688 19.671875 19.667969 19.671875h-26.050781c-10.863281 0-19.671875-8.808594-19.671875-19.671875v-33.742188h93.585937v17.601563zm0 0" fill="#3b3d4c"/><path d="m482.511719 384.800781c0 16.117188-13.0625 29.179688-29.179688 29.179688-16.113281 0-29.175781-13.0625-29.175781-29.179688 0-16.113281 13.0625-29.179687 29.175781-29.179687 16.117188 0 29.179688 13.066406 29.179688 29.179687zm0 0" fill="#ffce33"/><path d="m461.855469 412.703125c-2.695313.835937-5.558594 1.273437-8.523438 1.273437-16.109375 0-29.175781-13.058593-29.175781-29.175781 0-16.117187 13.066406-29.175781 29.175781-29.175781 2.964844 0 5.828125.4375 8.523438 1.273438-11.960938 3.636718-20.652344 14.75-20.652344 27.902343 0 13.152344 8.691406 24.265625 20.652344 27.902344zm0 0" fill="#ff9d33"/><path d="m511.921875 304.210938h-64.007813c-12.167968 0-22.035156-9.867188-22.035156-22.039063v-222.707031c0-12.171875 9.867188-22.039063 22.035156-22.039063h64.007813" fill="#e3f4fc"/><path d="m470.847656 304.210938h-22.929687c-12.167969 0-22.039063-9.871094-22.039063-22.042969v-222.707031c0-12.171876 9.871094-22.03125 22.039063-22.03125h22.929687c-12.167968 0-22.039062 9.859374-22.039062 22.03125v222.707031c0 12.171875 9.871094 22.042969 22.039062 22.042969zm0 0" fill="#fff"/><path d="m167.707031 335.09375 48.382813 8.425781c7.519531 1.308594 13.824218 6.433594 16.640625 13.535157l28.757812 72.617187c4.457031 11.273437-1.054687 24.027344-12.324219 28.484375-2.652343 1.054688-5.382812 1.546875-8.078124 1.546875-8.734376 0-16.992188-5.25-20.40625-13.871094l-24.226563-61.179687h-51.691406" fill="#34abe0"/><path d="m246.609375 458.980469c-1.835937.492187-3.6875.722656-5.523437.722656-8.734376 0-16.992188-5.25-20.40625-13.871094l-24.226563-61.179687c6.691406 0 12.703125 4.085937 15.167969 10.304687l20.144531 50.875c2.675781 6.75 8.320313 11.4375 14.84375 13.148438zm0 0" fill="#1895b7"/><path d="m268.382812 467.109375h-90.652343c-4.09375 0-7.410157-3.316406-7.410157-7.40625 0-4.09375 3.316407-7.410156 7.410157-7.410156h90.652343c4.089844 0 7.40625 3.316406 7.40625 7.410156 0 4.089844-3.316406 7.40625-7.40625 7.40625zm0 0" fill="#3b3d4c"/><path d="m51.578125 330.851562v-34.125c0-33.53125 27.183594-60.714843 60.714844-60.714843 16.765625 0 31.941406 6.792969 42.929687 17.78125 10.988282 10.988281 17.785156 26.167969 17.785156 42.933593v68.53125" fill="#f75772"/><path d="m126.160156 237.597656c-26.851562 6.277344-52.65625 30.363282-52.65625 59.128906v36.277344l-21.925781-2.152344v-34.125c0-33.53125 27.183594-60.714843 60.714844-60.714843 4.773437 0 9.417969.550781 13.867187 1.585937zm0 0" fill="#e0244c"/><path d="m148.867188 128.144531c14.324218 10.992188 23.558593 28.285157 23.558593 47.734375 0 33.214844-26.921875 60.136719-60.136719 60.136719-33.207031 0-60.128906-26.921875-60.128906-60.136719v-42.746094l38.890625-30.472656zm0 0" fill="#ffc48f"/><path d="m125.71875 234.519531c-4.316406.980469-8.808594 1.5-13.425781 1.5-33.207031 0-60.128907-26.921875-60.128907-60.136719v-42.746093l38.894532-30.476563 17.1875 7.574219-29.222656 22.902344v42.746093c0 28.597657 19.953124 52.527344 46.695312 58.636719zm0 0" fill="#e59a5c"/><path d="m200.09375 411.953125c0 55.253906-44.792969 100.046875-100.046875 100.046875s-100.046875-44.792969-100.046875-100.046875 44.792969-100.046875 100.046875-100.046875 100.046875 44.792969 100.046875 100.046875zm0 0" fill="#3b3d4c"/><path d="m174.730469 411.953125c0 41.246094-33.4375 74.683594-74.683594 74.683594s-74.683594-33.4375-74.683594-74.683594 33.4375-74.683594 74.683594-74.683594 74.683594 33.4375 74.683594 74.683594zm0 0" fill="#e6e6e6"/><path d="m112.289062 411.953125c0 6.761719-5.480468 12.242187-12.242187 12.242187s-12.242187-5.480468-12.242187-12.242187 5.480468-12.242187 12.242187-12.242187 12.242187 5.480468 12.242187 12.242187zm0 0" fill="#5c5e70"/><path d="m52.164062 133.132812v42.75c16.925782 0 30.648438-13.722656 30.648438-30.648437v-15.472656h53.707031c26.4375 0 47.871094-21.433594 47.871094-47.871094h-80.984375c-28.300781 0-51.242188 22.941406-51.242188 51.242187zm0 0" fill="#5c5e70"/><g fill="#3b3d4c"><path d="m136.761719 81.890625c-27.167969 0-49.398438 21.144531-51.128907 47.875h-2.820312v15.464844c0 8.472656-3.429688 16.125-8.976562 21.671875-5.550782 5.550781-13.203126 8.980468-21.671876 8.980468v-42.746093c0-28.300781 22.941407-51.246094 51.242188-51.246094zm0 0"/><path d="m122.511719 173.367188c-4.09375 0-7.410157-3.320313-7.410157-7.410157v-14.011719c0-4.089843 3.316407-7.40625 7.410157-7.40625 4.089843 0 7.40625 3.316407 7.40625 7.40625v14.011719c0 4.089844-3.316407 7.410157-7.40625 7.410157zm0 0"/><path d="m147.03125 173.367188c-4.09375 0-7.410156-3.320313-7.410156-7.410157v-14.011719c0-4.089843 3.316406-7.40625 7.410156-7.40625 4.089844 0 7.40625 3.316407 7.40625 7.40625v14.011719c0 4.089844-3.316406 7.410157-7.40625 7.410157zm0 0"/></g><path d="m95.464844 296.726562v45.203126l22.90625 22.90625c8.570312 8.570312 8.570312 22.464843 0 31.035156-4.28125 4.285156-9.898438 6.429687-15.515625 6.429687-5.613281 0-11.230469-2.144531-15.515625-6.429687l-29.335938-29.335938c-4.117187-4.113281-6.425781-9.695312-6.425781-15.515625v-54.292969" fill="#ffc48f"/><path d="m113.820312 399.363281c-3.378906 1.957031-7.171874 2.933594-10.964843 2.933594-5.617188 0-11.234375-2.144531-15.519531-6.425781l-29.332032-29.335938c-4.117187-4.117187-6.425781-9.699218-6.425781-15.519531v-54.289063h21.925781v54.289063c0 5.820313 2.308594 11.402344 6.425782 15.519531l29.335937 29.335938c1.394531 1.394531 2.929687 2.5625 4.554687 3.492187zm0 0" fill="#e59a5c"/><path d="m247.773438 485.851562c0 14.441407-11.707032 26.148438-26.152344 26.148438-14.441406 0-26.148438-11.707031-26.148438-26.148438 0-14.441406 11.707032-26.152343 26.148438-26.152343 14.445312 0 26.152344 11.710937 26.152344 26.152343zm0 0" fill="#5c5e70"/><path d="m221.625 493.257812c-3.035156 0-5.820312-1.914062-6.90625-4.742187-1.132812-2.9375-.242188-6.394531 2.203125-8.390625 5.269531-4.296875 13.304687.488281 11.964844 7.175781-.6875 3.417969-3.769531 5.957031-7.261719 5.957031zm0 0" fill="#3b3d4c"/></svg>