<svg id="Capa_1" enable-background="new 0 0 512 512" height="512" viewBox="0 0 512 512" width="512" xmlns="http://www.w3.org/2000/svg"><g><path d="m456.12 292.529-22.127-74.401-169.953-135.968c-7.703-.834-15.522-1.284-23.447-1.284-18.435 0-36.33 2.314-53.41 6.668l-126.59 90.245c-22.478 34.032-35.563 74.812-35.563 118.649 0 2.66.065 5.304.161 7.941l215.361 207.621c.013 0 .027.001.04.001 119.052 0 215.562-96.51 215.562-215.562.001-1.307-.011-2.61-.034-3.91z" fill="#cafaff"/><path d="m456.155 296.438c0-1.306-.012-2.609-.035-3.909l-22.128-74.401-169.953-135.968c-7.703-.833-15.522-1.285-23.447-1.285v431.125c119.053 0 215.563-96.51 215.563-215.562z" fill="#a4ecff"/><path d="m264.04 82.16c67.082 7.258 124.943 45.269 159.158 99.671l10.795 36.297h-107.165c-45.501 0-82.388-36.886-82.388-82.388 0-17.876 5.814-35.268 16.565-49.55z" fill="#00d06b"/><path d="m296.947 467.336c0-18.544-9.53-34.863-23.959-44.325-6.563-4.304-9.316-12.46-6.61-19.826 2.898-7.888 4.483-16.409 4.483-25.303 0-40.594-32.908-73.502-73.502-73.502h-172.168c4.179 115.358 98.988 207.6 215.361 207.621 45.938-.002 56.395-26.553 56.395-44.665z" fill="#8cea79"/><g><path d="m100.991 0c-47.628 0-86.238 38.61-86.238 86.238 0 0-3.222 71.601 79.291 113.655 4.058 2.068 8.857 2.084 12.917.02 20.197-10.268 80.267-46.459 80.267-113.675 0-47.628-38.61-86.238-86.237-86.238z" fill="#ff5799"/></g><circle cx="100.982" cy="84.457" fill="#fff" r="30.809"/><g><g><path d="m411.026 155.514c-47.628 0-86.238 38.61-86.238 86.238 0 0-3.222 71.601 79.291 113.655 4.058 2.068 8.857 2.085 12.917.02 20.197-10.268 80.267-46.459 80.267-113.675.001-47.628-38.609-86.238-86.237-86.238z" fill="#fa006a"/></g><circle cx="411.018" cy="239.971" fill="#fff5f5" r="30.809"/></g><path d="m272.987 423.011c-6.563-4.304-9.316-12.46-6.61-19.826 2.898-7.888 4.483-16.409 4.483-25.303 0-24.43-11.928-46.063-30.268-59.428v193.546c45.902-.016 56.354-26.556 56.354-44.663.001-18.545-9.529-34.863-23.959-44.326z" fill="#00d06b"/></g></svg>